<svg width="50" height="58" viewBox="0 0 50 58" fill="none" xmlns="http://www.w3.org/2000/svg">
<path fill-rule="evenodd" clip-rule="evenodd" d="M24.8848 12.887C22.1754 12.8575 19.4625 13.048 16.7993 13.4931C13.5823 14.0295 10.1423 14.859 7.31453 16.8499C5.05725 18.4393 3.42935 20.7604 2.22326 23.0955C0.97692 25.5083 0.149555 28.2325 0.0303324 30.9907C-0.139757 34.8948 0.380666 39.0732 2.22326 42.6532C5.10442 48.251 9.59906 53.6435 15.4422 56.3528C19.8104 58.3783 25.0242 58.3463 29.5735 57.2773C35.0033 56.0016 40.3467 53.0925 44.0729 48.8681C47.3062 45.2023 48.9938 40.2965 49.7048 35.5981C50.2797 31.7986 50.079 27.6477 48.5316 24.02C47.2789 21.0832 45.0017 18.5909 42.4129 16.8384C39.56 14.9076 36.1359 14.1529 32.9473 13.6159C30.2979 13.1696 27.5942 12.917 24.8848 12.887ZM24.8618 14.8512C27.4638 14.8806 30.0684 15.1233 32.6214 15.5532C35.7325 16.0773 38.8738 16.8145 41.3126 18.465C43.6247 20.0303 45.6557 22.2823 46.7259 24.7912C48.0824 27.9716 48.2974 31.7869 47.7648 35.3066C47.0931 39.7459 45.4791 44.308 42.6007 47.5714C39.1977 51.4295 34.1837 54.1781 29.125 55.3668C24.8982 56.3599 20.0776 56.3397 16.2664 54.5727C10.9834 52.1231 6.70115 47.0663 3.96763 41.7555C2.34335 38.5996 1.83355 34.7401 1.99323 31.0751C2.09778 28.6564 2.83611 26.1875 3.96763 23.997C5.08404 21.8354 6.56617 19.7808 8.4455 18.4573C10.8642 16.7546 14.0108 15.9492 17.1214 15.4305C19.6619 15.007 22.2597 14.8225 24.8618 14.8512Z" fill="#1188EE"/>
<path fill-rule="evenodd" clip-rule="evenodd" d="M3.27372 22.6772C3.07884 22.6885 2.89174 22.7578 2.73635 22.876C2.58096 22.9942 2.46432 23.156 2.40136 23.3409C2.33839 23.5258 2.33195 23.7254 2.38286 23.914C2.43376 24.1026 2.53971 24.2717 2.68715 24.3997C2.68715 24.3997 3.60626 25.2212 4.8034 26.1491C6.00054 27.0768 7.4398 28.121 8.74837 28.6351C14.2923 30.8124 20.3935 31.085 26.1691 31.0328C38.3877 30.9228 47.8377 25.7847 47.8377 25.7847C47.9543 25.7251 48.0579 25.6427 48.1423 25.5425C48.2266 25.4423 48.2901 25.3262 48.3289 25.2011C48.3677 25.0759 48.3811 24.9443 48.3683 24.8138C48.3555 24.6834 48.3168 24.5569 48.2544 24.4417C48.1919 24.3265 48.1071 24.2248 48.0049 24.143C47.9026 24.0611 47.785 24.0005 47.659 23.9648C47.533 23.9291 47.4012 23.919 47.2712 23.9351C47.1412 23.9511 47.0158 23.993 46.9022 24.0583C46.9022 24.0583 37.8281 28.9629 26.1499 29.0686C20.452 29.1197 14.6023 28.8228 9.46529 26.8051C8.58777 26.4606 7.14656 25.4785 6.00721 24.5954C4.86786 23.7125 3.99447 22.9343 3.99447 22.9343C3.89764 22.8453 3.78395 22.7767 3.66014 22.7326C3.53633 22.6885 3.40493 22.6696 3.27372 22.6772Z" fill="#1188EE"/>
<path fill-rule="evenodd" clip-rule="evenodd" d="M48.4588 29.6747C48.2043 29.6849 47.9637 29.7935 47.7879 29.9778C47.7879 29.9778 47.3453 30.4275 46.7681 30.9561C46.1908 31.4849 45.4518 32.0967 45.0467 32.3295C42.6578 33.7027 39.9126 34.5642 37.1376 35.1032C34.7665 35.564 29.2553 35.4523 29.2553 35.4523C29.1264 35.4487 28.998 35.4705 28.8775 35.5165C28.7571 35.5626 28.6468 35.6321 28.5532 35.7208C28.4595 35.8095 28.3842 35.9159 28.3316 36.0337C28.279 36.1516 28.2501 36.2785 28.2466 36.4075C28.243 36.5366 28.265 36.6651 28.311 36.7857C28.3571 36.9062 28.4265 37.0164 28.5152 37.1101C28.6039 37.2038 28.7102 37.279 28.828 37.3316C28.9457 37.3842 29.0727 37.413 29.2016 37.4165C29.2016 37.4165 34.5798 37.6031 37.5133 37.0329C40.4342 36.4656 43.3819 35.5518 46.0243 34.0328C46.7397 33.6215 47.4754 32.9771 48.0946 32.4101C48.7137 31.843 49.1872 31.3587 49.1872 31.3587C49.328 31.2195 49.4235 31.041 49.4611 30.8465C49.4987 30.6521 49.4766 30.4508 49.3978 30.2691C49.3191 30.0874 49.1872 29.9338 49.0196 29.8284C48.8521 29.7231 48.6566 29.6708 48.4588 29.6786L48.4588 29.6747Z" fill="#1188EE"/>
<path fill-rule="evenodd" clip-rule="evenodd" d="M47.6613 38.1684C47.507 38.1731 47.356 38.2142 47.2205 38.2883C47.2205 38.2883 42.0969 40.9217 39.6295 41.6298C37.9758 42.1043 33.9364 42.4546 33.9364 42.4546C33.6766 42.4749 33.4355 42.5976 33.2662 42.7958C33.0968 42.994 33.0131 43.2515 33.0335 43.5115C33.0538 43.7715 33.1765 44.0127 33.3746 44.1821C33.5727 44.3516 33.8299 44.4353 34.0897 44.415C34.0897 44.415 38.0104 44.137 40.1701 43.5173C43.1435 42.6638 48.1291 40.03 48.1291 40.03C48.3293 39.9301 48.4894 39.7649 48.5828 39.5615C48.6763 39.3581 48.6974 39.1286 48.6429 38.9115C48.5883 38.6944 48.4612 38.5024 48.2827 38.3674C48.1042 38.2325 47.885 38.1617 47.6613 38.1684Z" fill="#1188EE"/>
<path fill-rule="evenodd" clip-rule="evenodd" d="M25.4139 17.0992C23.6099 17.1188 21.3018 17.1561 19.1034 17.3217C16.9037 17.4867 14.8414 17.7525 13.3528 18.3345C10.5165 19.4439 9.14325 21.5378 9.14325 21.5378C9.07243 21.6469 9.02396 21.769 9.00065 21.897C8.97734 22.025 8.97967 22.1562 9.00749 22.2833C9.03531 22.4103 9.08807 22.5305 9.16271 22.6369C9.23735 22.7434 9.33238 22.8341 9.44229 22.9036C9.44229 22.9036 13.8608 25.7375 17.9226 26.5941C21.9063 27.4346 28.4682 27.4684 32.4872 26.655C36.5874 25.8257 41.1516 22.9681 41.1516 22.9681C41.2837 22.8864 41.3947 22.7747 41.4752 22.6417C41.5557 22.5088 41.6036 22.3585 41.6148 22.2034C41.626 22.0484 41.6003 21.893 41.5398 21.7498C41.4792 21.6066 41.3856 21.4797 41.2666 21.3798C41.2666 21.3798 38.3724 18.8684 35.4776 17.9424C32.6645 17.0428 29.017 17.0668 25.4177 17.0984L25.4139 17.0992ZM25.4331 19.0634C29.0187 19.032 32.5689 19.083 34.8796 19.8153C36.526 20.3419 37.7243 21.3743 38.6635 22.0826C37.1732 22.9056 34.6488 24.2143 32.1001 24.7297C28.5261 25.4525 21.87 25.419 18.3291 24.6726C15.6769 24.1132 13.0628 22.6905 11.7158 21.9183C12.138 21.4147 12.4352 20.8029 14.0659 20.1651C15.1324 19.7481 17.128 19.4425 19.2492 19.2828C21.3704 19.1237 23.6444 19.0791 25.4331 19.0634Z" fill="#1188EE"/>
<path fill-rule="evenodd" clip-rule="evenodd" d="M16.0556 8.70911L14.1809 9.2884L19.2721 25.8614L21.1468 25.2821L16.0556 8.70911Z" fill="#1188EE"/>
<path fill-rule="evenodd" clip-rule="evenodd" d="M42.2787 4.02092C42.1574 4.02441 42.0378 4.05039 41.926 4.09752L33.5837 7.47351C33.4289 7.5364 33.2928 7.63771 33.1881 7.76795C33.0835 7.89818 33.0138 8.05304 32.9856 8.21776L29.9761 25.5887C29.9542 25.7159 29.9575 25.8462 29.9859 25.9721C30.0144 26.098 30.0673 26.2172 30.1417 26.3227C30.292 26.5356 30.5206 26.68 30.7773 26.7243C30.9045 26.7462 31.0347 26.7429 31.1605 26.7145C31.2863 26.686 31.4053 26.6331 31.5107 26.5586C31.7235 26.4082 31.8679 26.1794 31.9121 25.9225L34.8258 9.08861L42.6621 5.91979C42.8789 5.83675 43.0593 5.67953 43.1713 5.47597C43.2832 5.27241 43.3194 5.0357 43.2734 4.80797C43.2274 4.58023 43.1023 4.37615 42.9201 4.23203C42.738 4.08791 42.5108 4.0132 42.2787 4.02092Z" fill="#1188EE"/>
<path fill-rule="evenodd" clip-rule="evenodd" d="M13.9202 2.5518C13.7817 2.55696 13.6458 2.5915 13.5216 2.65298C13.3974 2.71446 13.2876 2.80157 13.1994 2.90858L6.88131 10.5199C6.74938 10.6797 6.67139 10.8772 6.65849 11.0841C6.64559 11.291 6.69846 11.4967 6.80952 11.6718C6.92059 11.8468 7.08414 11.9822 7.27678 12.0585C7.46941 12.1348 7.68124 12.1481 7.88193 12.0966L23.5238 8.04545C23.7252 7.99315 23.9048 7.87832 24.0367 7.7172C24.1685 7.55608 24.2458 7.35711 24.2573 7.14918C24.2688 6.94125 24.214 6.73501 24.1008 6.5603C23.9875 6.38559 23.8217 6.2514 23.6273 6.17714L14.3035 2.61701C14.1813 2.57004 14.051 2.5476 13.9202 2.5518ZM14.2614 4.70003L20.0542 6.91372L10.3356 9.43037L14.2614 4.70003Z" fill="#1188EE"/>
<path fill-rule="evenodd" clip-rule="evenodd" d="M13.1726 0.000765711C13.0187 0.00684616 12.8683 0.0490232 12.7338 0.124008C12.5992 0.198994 12.4841 0.304633 12.3979 0.432355C12.3117 0.560077 12.2567 0.706348 12.2375 0.859268C12.2182 1.01219 12.2351 1.16753 12.287 1.31268L13.0844 3.66807C13.124 3.79231 13.1879 3.90739 13.2725 4.00663C13.357 4.10588 13.4605 4.18734 13.5768 4.24616C13.6931 4.30498 13.8199 4.34002 13.9499 4.34927C14.0799 4.35851 14.2104 4.34176 14.3339 4.29999C14.4573 4.25822 14.5713 4.19231 14.669 4.10602C14.7667 4.01973 14.8462 3.91481 14.903 3.79743C14.9598 3.68005 14.9926 3.55253 14.9996 3.42231C15.0066 3.29209 14.9876 3.16171 14.9438 3.03891L14.1463 0.683516C14.081 0.478777 13.9504 0.301044 13.7745 0.177717C13.5986 0.0543908 13.3872 -0.00771171 13.1726 0.000765711Z" fill="#1188EE"/>
<path fill-rule="evenodd" clip-rule="evenodd" d="M6.89282 30.607C6.79979 30.614 6.71069 30.6475 6.63595 30.7034L0.90827 34.7814C0.855659 34.819 0.81095 34.8664 0.776698 34.9212C0.742445 34.976 0.719318 35.0371 0.708638 35.1008C0.697959 35.1646 0.699935 35.2299 0.714454 35.2929C0.728973 35.3559 0.755752 35.4155 0.793259 35.4681C0.830767 35.5208 0.87827 35.5655 0.933056 35.5998C0.987843 35.6341 1.04884 35.6572 1.11256 35.6679C1.17629 35.6786 1.24149 35.6766 1.30445 35.6621C1.36741 35.6476 1.42689 35.6208 1.4795 35.5832L7.20335 31.5014C7.29156 31.4403 7.35733 31.3519 7.3906 31.2498C7.42388 31.1478 7.42282 31.0376 7.3876 30.9362C7.35238 30.8348 7.28493 30.7479 7.19557 30.6885C7.10621 30.6291 6.99987 30.6002 6.89282 30.607Z" fill="#1188EE"/>
<path fill-rule="evenodd" clip-rule="evenodd" d="M8.77904 32.7783C8.68613 32.7895 8.59834 32.8271 8.52601 32.8865L2.02007 38.0082C1.96541 38.0465 1.91913 38.0955 1.88406 38.1523C1.849 38.2092 1.82588 38.2726 1.81612 38.3386C1.80636 38.4047 1.81017 38.4719 1.82731 38.5365C1.84445 38.601 1.87456 38.6614 1.91581 38.7139C1.95705 38.7664 2.00857 38.81 2.06719 38.8419C2.12582 38.8738 2.19034 38.8934 2.25679 38.8995C2.32325 38.9056 2.39024 38.8981 2.45369 38.8774C2.51714 38.8567 2.57571 38.8232 2.62581 38.7791L9.13175 33.6576C9.21709 33.5924 9.27871 33.501 9.30718 33.3974C9.33565 33.2938 9.3294 33.1837 9.28937 33.084C9.24934 32.9844 9.17776 32.9005 9.08558 32.8455C8.9934 32.7904 8.88572 32.7663 8.77904 32.7783Z" fill="#1188EE"/>
<path fill-rule="evenodd" clip-rule="evenodd" d="M11.409 34.6006C11.2985 34.6063 11.1931 34.6492 11.11 34.7224L3.21621 41.4936C3.16592 41.5352 3.12444 41.5865 3.09418 41.6444C3.06392 41.7022 3.0455 41.7656 3.03999 41.8307C3.03449 41.8957 3.042 41.9611 3.06211 42.0232C3.08221 42.0853 3.1145 42.143 3.15707 42.1925C3.19965 42.242 3.25166 42.2825 3.31007 42.3117C3.36848 42.3408 3.43211 42.3578 3.49723 42.362C3.56236 42.3662 3.62767 42.3575 3.68935 42.3361C3.75103 42.3148 3.80784 42.2814 3.85645 42.2378L11.7502 35.4676C11.8292 35.4015 11.8854 35.3121 11.9108 35.2123C11.9363 35.1124 11.9296 35.007 11.8919 34.9111C11.8541 34.8152 11.7872 34.7335 11.7005 34.6778C11.6139 34.6221 11.5119 34.5951 11.409 34.6006Z" fill="#1188EE"/>
<path fill-rule="evenodd" clip-rule="evenodd" d="M13.4026 37.2899C13.2916 37.2967 13.1861 37.3409 13.1036 37.4155L4.94908 44.5319C4.89812 44.5735 4.85603 44.6248 4.82532 44.683C4.79461 44.7412 4.7759 44.8052 4.77031 44.8707C4.76471 44.9363 4.77235 45.0022 4.79275 45.0647C4.81316 45.1273 4.84593 45.1851 4.88911 45.2347C4.93228 45.2844 4.98499 45.325 5.0441 45.3539C5.10321 45.3827 5.16751 45.3993 5.23319 45.4028C5.29886 45.4063 5.36457 45.3967 5.42641 45.3743C5.48825 45.3519 5.54496 45.3171 5.59316 45.2724L13.7476 38.1559C13.827 38.0896 13.8833 37.9997 13.9087 37.8994C13.9341 37.7991 13.9271 37.6934 13.8889 37.5973C13.8506 37.5011 13.783 37.4196 13.6957 37.3642C13.6084 37.3088 13.5058 37.2835 13.4026 37.2899Z" fill="#1188EE"/>
<path fill-rule="evenodd" clip-rule="evenodd" d="M15.584 39.7221C15.4729 39.7253 15.3661 39.7661 15.2811 39.838L6.34842 47.2155C6.24776 47.2984 6.18415 47.418 6.17157 47.5478C6.15899 47.6777 6.19848 47.807 6.28134 47.9077C6.36421 48.0084 6.48367 48.0723 6.61344 48.0849C6.74321 48.0975 6.87267 48.0578 6.97333 47.9748L15.9061 40.5975C15.9866 40.5332 16.0449 40.4452 16.0726 40.3458C16.1003 40.2464 16.096 40.1407 16.0604 40.0439C16.0248 39.9471 15.9596 39.8639 15.874 39.8063C15.7885 39.7487 15.6871 39.7188 15.584 39.7221Z" fill="#1188EE"/>
<path fill-rule="evenodd" clip-rule="evenodd" d="M17.6543 42.7606C17.5603 42.7657 17.4698 42.7977 17.3936 42.8529L8.1963 49.3632C8.14368 49.4004 8.09892 49.4476 8.06456 49.5022C8.0302 49.5568 8.00692 49.6177 7.99606 49.6813C7.9852 49.7449 7.98696 49.81 8.00124 49.8729C8.01553 49.9358 8.04206 49.9953 8.07932 50.0479C8.11658 50.1006 8.16384 50.1454 8.2184 50.1798C8.27296 50.2142 8.33375 50.2373 8.3973 50.2481C8.46085 50.259 8.52592 50.2574 8.58879 50.2431C8.65166 50.2288 8.71109 50.2022 8.7637 50.1649L17.961 43.6547C18.0488 43.5937 18.1143 43.5057 18.1476 43.4041C18.1809 43.3025 18.1802 43.1928 18.1455 43.0917C18.1108 42.9905 18.044 42.9035 17.9554 42.8438C17.8667 42.784 17.761 42.7547 17.6543 42.7606Z" fill="#1188EE"/>
<path fill-rule="evenodd" clip-rule="evenodd" d="M20.2881 44.4946C20.177 44.4936 20.0689 44.5302 19.9814 44.5986L11.3937 51.1092C11.29 51.188 11.2218 51.3047 11.2042 51.4338C11.1866 51.5629 11.221 51.6938 11.2998 51.7976C11.3786 51.9013 11.4954 51.9696 11.6244 51.9872C11.7535 52.0048 11.8842 51.9704 11.9879 51.8915L20.5756 45.3815C20.6585 45.3203 20.72 45.2346 20.7515 45.1365C20.783 45.0383 20.7828 44.9326 20.751 44.8346C20.7192 44.7365 20.6574 44.6509 20.5743 44.59C20.4912 44.5291 20.3911 44.4954 20.2881 44.4946Z" fill="#1188EE"/>
<path fill-rule="evenodd" clip-rule="evenodd" d="M22.8989 46.3168C22.7878 46.3158 22.6797 46.3525 22.5922 46.4209L13.3067 53.2765C13.2537 53.3143 13.2087 53.3623 13.1744 53.4177C13.1401 53.4731 13.1171 53.5346 13.1069 53.599C13.0966 53.6633 13.0993 53.7291 13.1147 53.7924C13.1301 53.8558 13.1579 53.9155 13.1966 53.968C13.2353 54.0204 13.284 54.0645 13.34 54.0979C13.3959 54.1313 13.4579 54.1535 13.5224 54.1627C13.5869 54.1718 13.6526 54.1679 13.7156 54.1514C13.7786 54.1349 13.8377 54.1061 13.8895 54.0665L23.1749 47.2074C23.2587 47.1473 23.3214 47.0622 23.3543 46.9645C23.3871 46.8667 23.3883 46.7611 23.3578 46.6626C23.3272 46.5641 23.2665 46.4776 23.1841 46.4156C23.1017 46.3536 23.0019 46.3189 22.8989 46.3168Z" fill="#1188EE"/>
<path fill-rule="evenodd" clip-rule="evenodd" d="M25.5097 48.4C25.3815 48.3946 25.2562 48.4397 25.1608 48.5256L17.6159 55.1244C17.565 55.166 17.5229 55.2172 17.4922 55.2754C17.4615 55.3336 17.4427 55.3976 17.4371 55.4632C17.4316 55.5287 17.4392 55.5946 17.4596 55.6571C17.48 55.7197 17.5128 55.7775 17.5559 55.8271C17.5991 55.8768 17.6518 55.9174 17.7109 55.9463C17.7701 55.9752 17.8344 55.9917 17.9 55.9952C17.9657 55.9987 18.0314 55.9891 18.0933 55.9667C18.1551 55.9443 18.2118 55.9095 18.26 55.8648L25.8087 49.2663C25.8848 49.2024 25.9397 49.1167 25.9662 49.021C25.9927 48.9252 25.9896 48.8238 25.9572 48.7299C25.9248 48.636 25.8646 48.5539 25.7847 48.4949C25.7049 48.4359 25.609 48.4033 25.5097 48.4Z" fill="#1188EE"/>
<path fill-rule="evenodd" clip-rule="evenodd" d="M28.6726 50.744C28.5452 50.751 28.4256 50.8073 28.339 50.9011L22.7877 56.7172C22.7432 56.7638 22.7082 56.8187 22.6849 56.8788C22.6615 56.9389 22.6502 57.003 22.6517 57.0675C22.6531 57.132 22.6672 57.1955 22.6932 57.2545C22.7191 57.3136 22.7565 57.367 22.803 57.4116C22.8496 57.4562 22.9045 57.4911 22.9646 57.5145C23.0247 57.5378 23.0887 57.549 23.1532 57.5475C23.2176 57.5461 23.2811 57.5321 23.3401 57.5061C23.3991 57.4801 23.4524 57.4428 23.497 57.3962L29.0483 51.5801C29.1182 51.5096 29.1652 51.4196 29.1829 51.3219C29.2006 51.2241 29.1884 51.1233 29.1477 51.0327C29.107 50.9421 29.0398 50.8661 28.955 50.8145C28.8701 50.7629 28.7717 50.7385 28.6726 50.744Z" fill="#1188EE"/>
</svg>
