<svg width="54" height="55" viewBox="0 0 54 55" fill="none" xmlns="http://www.w3.org/2000/svg">
<path fill-rule="evenodd" clip-rule="evenodd" d="M27.6671 12.4606C25.227 12.272 22.6989 12.8059 20.5307 13.9153C17.9627 15.2293 15.5863 17.2603 14.1218 19.8336C12.652 22.4163 11.9445 25.5555 12.2841 28.5346C12.6901 32.0961 14.1682 35.84 16.8783 38.3563C19.7932 41.0628 23.9883 42.8264 28.027 42.5475C32.126 42.2645 36.0547 39.8776 38.632 36.7942C40.8171 34.18 41.7812 30.6248 41.802 27.3256C41.8155 23.5933 40.9685 19.3143 38.2223 16.4482C35.4885 13.595 31.2863 12.7439 27.6671 12.4644V12.4606ZM27.5139 14.4219C30.9287 14.6856 34.6524 15.5596 36.8058 17.8071C38.9982 20.0951 39.8542 23.9001 39.8418 27.3141C39.8234 30.2289 38.9273 33.3826 37.1312 35.5314C34.8731 38.2331 31.3012 40.3506 27.8891 40.5862C24.5272 40.8183 20.7381 39.2639 18.2106 36.917C15.9614 34.8285 14.5905 31.4831 14.2289 28.312C13.9429 25.8025 14.5608 23.0203 15.8216 20.8046C17.0496 18.6468 19.1472 16.828 21.4189 15.6654C23.2597 14.7237 25.4663 14.2637 27.5139 14.4219Z" fill="#1188EE"/>
<path fill-rule="evenodd" clip-rule="evenodd" d="M28.8693 0.0517652C21.5648 -0.452285 13.8488 2.77087 8.53211 7.70506C3.63344 12.2513 0.896274 19.1183 0.151458 25.6482C-0.46438 31.0471 0.826483 36.8016 3.50142 41.4996C6.15452 46.1588 10.5052 49.8828 15.2091 52.2885C19.1466 54.3021 23.7673 55.2741 28.1878 54.9329C34.9112 54.4141 42.6081 52.8036 47.4989 47.7019C52.4249 42.564 54.0246 34.7187 53.9997 27.8359C53.9633 21.7969 52.1798 15.2858 48.2378 10.5721C43.5263 4.93835 36.283 0.567634 28.8693 0.0557232V0.0517652ZM28.7353 2.00932C35.4625 2.47387 42.341 6.57907 46.7332 11.831C50.2862 16.0796 52.0054 22.1896 52.0395 27.8436C52.0632 34.408 50.4582 41.7792 46.0861 46.3394C41.7761 50.8354 34.5536 52.4724 28.0346 52.9755C24.0063 53.2864 19.7112 52.3845 16.1011 50.5383C11.6935 48.2843 7.6215 44.7683 5.20511 40.5247C2.73921 36.1938 1.53793 30.7999 2.10018 25.8708C2.80043 19.7316 5.42664 13.2669 9.86443 9.14819C14.7937 4.57361 22.1073 1.55184 28.7353 2.00932Z" fill="#1188EE"/>
<path fill-rule="evenodd" clip-rule="evenodd" d="M15.6953 3.60986L14.0031 4.60392L20.3737 15.5348L22.066 14.5408L15.6953 3.60986Z" fill="#1188EE"/>
<path fill-rule="evenodd" clip-rule="evenodd" d="M39.5164 4.1779L32.7782 14.3719L34.4091 15.4581L41.1473 5.26408L39.5164 4.1779Z" fill="#1188EE"/>
<path fill-rule="evenodd" clip-rule="evenodd" d="M48.5249 13.09L38.7239 18.9853L39.7346 20.6702L49.5357 14.7749L48.5249 13.09Z" fill="#1188EE"/>
<path fill-rule="evenodd" clip-rule="evenodd" d="M40.0983 32.3688L39.0953 34.0575L50.6115 40.9354L51.6145 39.2466L40.0983 32.3688Z" fill="#1188EE"/>
<path fill-rule="evenodd" clip-rule="evenodd" d="M35.6189 38.6556L33.7736 39.3196L38.1841 51.6015L40.0294 50.9375L35.6189 38.6556Z" fill="#1188EE"/>
<path fill-rule="evenodd" clip-rule="evenodd" d="M19.2711 39.3541L13.1455 49.9166L14.8377 50.903L20.9633 40.3405L19.2711 39.3541Z" fill="#1188EE"/>
<path fill-rule="evenodd" clip-rule="evenodd" d="M14.7382 32.9713L3.8345 39.1123L4.79163 40.8279L15.6953 34.687L14.7382 32.9713Z" fill="#1188EE"/>
<path fill-rule="evenodd" clip-rule="evenodd" d="M4.82992 13.6388L3.89576 15.366L14.0643 20.8928L14.9985 19.1657L4.82992 13.6388Z" fill="#1188EE"/>
<path fill-rule="evenodd" clip-rule="evenodd" d="M6.3575 17.1201C6.24622 17.1159 6.13685 17.15 6.04739 17.2165L1.94321 20.1642C1.8376 20.2405 1.76656 20.3558 1.74573 20.4847C1.7249 20.6135 1.75598 20.7453 1.83213 20.8512C1.90829 20.9571 2.02328 21.0282 2.15181 21.0491C2.28034 21.07 2.41188 21.0388 2.51749 20.9625L6.62167 18.0148C6.70637 17.9559 6.77036 17.8717 6.80456 17.7742C6.83876 17.6767 6.84142 17.5708 6.81216 17.4717C6.7829 17.3726 6.72321 17.2854 6.64158 17.2223C6.55996 17.1591 6.46055 17.1233 6.3575 17.1201Z" fill="#1188EE"/>
<path fill-rule="evenodd" clip-rule="evenodd" d="M7.01984 18.6552C6.89199 18.653 6.76834 18.7009 6.67527 18.7888L1.22345 23.8244C1.17593 23.8683 1.13749 23.9211 1.11033 23.9799C1.08317 24.0386 1.06781 24.102 1.06514 24.1667C1.06248 24.2314 1.07254 24.2959 1.09478 24.3567C1.11701 24.4175 1.15096 24.4734 1.19471 24.521C1.23846 24.5687 1.29113 24.6073 1.34973 24.6345C1.40833 24.6617 1.4717 24.6769 1.53623 24.6796C1.60076 24.6823 1.66518 24.6722 1.72581 24.6499C1.78645 24.6276 1.84211 24.5935 1.88961 24.5496L7.34143 19.514C7.4159 19.4481 7.46865 19.3614 7.4927 19.2648C7.51674 19.1682 7.51094 19.0663 7.47607 18.9731C7.4412 18.8798 7.3789 18.7995 7.29743 18.7425C7.21595 18.6856 7.11915 18.6558 7.01984 18.6552Z" fill="#1188EE"/>
<path fill-rule="evenodd" clip-rule="evenodd" d="M7.77789 20.8047C7.66834 20.8123 7.56453 20.8565 7.48309 20.9304L0.438598 27.133C0.387385 27.1745 0.345044 27.2258 0.314104 27.2841C0.283165 27.3424 0.264261 27.4064 0.258522 27.4722C0.252783 27.5379 0.260326 27.6042 0.280702 27.6669C0.301077 27.7297 0.333867 27.7877 0.377113 27.8375C0.420358 27.8873 0.473171 27.9278 0.532398 27.9567C0.591625 27.9856 0.656051 28.0023 0.721826 28.0057C0.787601 28.009 0.853377 27.9991 0.915224 27.9764C0.977072 27.9537 1.03372 27.9186 1.08179 27.8735L8.13011 21.6713C8.21007 21.6046 8.26678 21.5139 8.29201 21.4128C8.31725 21.3116 8.3097 21.205 8.27047 21.1083C8.23124 21.0117 8.16236 20.9302 8.07381 20.8754C7.98525 20.8207 7.88161 20.7964 7.77789 20.8047Z" fill="#1188EE"/>
<path fill-rule="evenodd" clip-rule="evenodd" d="M8.18754 23.1995C8.06024 23.1962 7.93666 23.2426 7.84297 23.3291L0.920992 29.5929C0.824558 29.6804 0.76676 29.803 0.760311 29.9332C0.753862 30.0635 0.799288 30.1909 0.886601 30.2875C0.973913 30.3842 1.09596 30.4423 1.2259 30.4488C1.35584 30.4552 1.48303 30.4096 1.5795 30.3221L8.50148 24.0583C8.57549 23.9929 8.62808 23.9066 8.65236 23.8108C8.67665 23.7149 8.67149 23.6139 8.63756 23.521C8.60364 23.4281 8.54253 23.3477 8.46224 23.2902C8.38194 23.2327 8.2862 23.2016 8.18754 23.1995Z" fill="#1188EE"/>
<path fill-rule="evenodd" clip-rule="evenodd" d="M8.88433 25.5945C8.77527 25.601 8.67151 25.6439 8.58954 25.7164L1.11625 32.1644C1.06603 32.206 1.0246 32.2571 0.994383 32.315C0.964167 32.3729 0.945771 32.4363 0.940272 32.5014C0.934773 32.5665 0.942282 32.6321 0.962358 32.6943C0.982433 32.7564 1.01467 32.8139 1.05719 32.8634C1.09971 32.9129 1.15165 32.9535 1.20998 32.9826C1.26831 33.0117 1.33185 33.029 1.39688 33.0332C1.46192 33.0374 1.52714 33.0287 1.58874 33.0073C1.65033 32.986 1.70706 32.9525 1.75561 32.909L9.2289 26.4609C9.30813 26.3946 9.36442 26.3049 9.38975 26.2045C9.41508 26.1042 9.40815 25.9984 9.36995 25.9023C9.33175 25.8061 9.26423 25.7243 9.17702 25.6689C9.08982 25.6134 8.98738 25.5881 8.88433 25.5945Z" fill="#1188EE"/>
<path fill-rule="evenodd" clip-rule="evenodd" d="M9.74192 28.3579C9.63152 28.3636 9.52628 28.4066 9.4433 28.4798L1.90875 34.9892C1.81029 35.0747 1.74973 35.196 1.74041 35.3262C1.73109 35.4565 1.77376 35.5849 1.85905 35.6837C1.94433 35.7824 2.06524 35.8432 2.19518 35.8525C2.32512 35.8619 2.45345 35.8193 2.55195 35.7338L10.0865 29.2244C10.1657 29.158 10.222 29.0681 10.2473 28.9677C10.2727 28.8674 10.2657 28.7616 10.2275 28.6655C10.1893 28.5693 10.1218 28.4877 10.0346 28.4323C9.94741 28.3769 9.84497 28.3515 9.74192 28.3579Z" fill="#1188EE"/>
<path fill-rule="evenodd" clip-rule="evenodd" d="M10.3009 31.4284C10.1907 31.4336 10.0855 31.4756 10.0023 31.5481L2.83526 37.5663C2.78573 37.6076 2.74481 37.6585 2.71484 37.7157C2.68486 37.7729 2.66641 37.8354 2.66055 37.8997C2.65468 37.964 2.66151 38.0287 2.68065 38.0904C2.69979 38.1521 2.73087 38.2094 2.7721 38.2591C2.81333 38.3087 2.86391 38.3499 2.92095 38.38C2.978 38.41 3.04038 38.4283 3.10455 38.4342C3.16872 38.44 3.23342 38.4332 3.29495 38.414C3.35647 38.3948 3.41362 38.3637 3.46314 38.3224L10.6301 32.3042C10.7112 32.2395 10.7698 32.1507 10.7973 32.0504C10.8248 31.9502 10.82 31.8438 10.7834 31.7465C10.7468 31.6493 10.6803 31.566 10.5937 31.509C10.507 31.452 10.4045 31.4234 10.3009 31.4284Z" fill="#1188EE"/>
</svg>
