<svg width="45" height="47" viewBox="0 0 45 47" fill="none" xmlns="http://www.w3.org/2000/svg">
<path fill-rule="evenodd" clip-rule="evenodd" d="M10.3994 8.26753C10.2667 8.26295 10.1346 8.28571 10.011 8.33414C9.88748 8.38256 9.77511 8.45569 9.68085 8.54919C9.68085 8.54919 5.96685 12.2077 4.20265 14.3003C3.15114 15.5471 1.8572 16.8374 1.05107 18.5632C0.435767 19.8803 -0.0396967 21.3891 0.0170228 22.9707C0.0707877 24.4591 0.673488 25.7658 1.23355 26.8986C2.09523 28.6416 4.19125 31.1349 4.19125 31.1349C4.27236 31.2339 4.37215 31.3157 4.48493 31.3761C4.5977 31.4365 4.72125 31.4741 4.84852 31.4867C4.97579 31.4993 5.10428 31.4865 5.22666 31.4494C5.34904 31.4122 5.46291 31.3512 5.56177 31.27C5.66062 31.1888 5.74253 31.0889 5.80282 30.976C5.8631 30.8631 5.90058 30.7394 5.91311 30.612C5.92564 30.4846 5.91298 30.3558 5.87585 30.2333C5.83872 30.1108 5.77784 29.9968 5.6967 29.8979C5.6967 29.8979 3.57784 27.2468 2.97852 26.0346C2.44429 24.9541 1.99505 23.8818 1.95967 22.9022C1.91907 21.7699 2.28117 20.532 2.81505 19.3891C3.43255 18.0671 4.57265 16.8803 5.6891 15.5563C7.07837 13.9086 9.51469 11.5013 10.3081 10.7111C11.0245 11.522 12.9747 13.6971 13.9843 15.2099C14.9673 16.683 15.9307 18.1034 16.3528 19.587C16.7569 21.0069 16.8757 22.5551 16.6303 23.9755C16.4747 24.8723 16.0487 25.7884 15.4936 26.6094C15.2557 26.9611 14.6293 27.6127 14.0908 28.1128C13.5523 28.6126 13.0985 28.9882 13.0985 28.9882C12.9999 29.0699 12.9184 29.1704 12.8585 29.2837C12.7986 29.3969 12.7616 29.521 12.7496 29.6486C12.7376 29.7762 12.7508 29.9048 12.7885 30.0273C12.8262 30.1498 12.8876 30.2635 12.9692 30.3622C13.0508 30.4609 13.1511 30.5428 13.2642 30.6027C13.3774 30.6627 13.5012 30.6997 13.6287 30.7117C13.7561 30.7237 13.8847 30.7104 14.007 30.6727C14.1294 30.6349 14.2431 30.5734 14.3417 30.4916C14.3417 30.4916 14.8325 30.0797 15.4137 29.5401C15.995 29.0003 16.6613 28.3587 17.1055 27.7017C17.7747 26.7123 18.332 25.5678 18.5501 24.3104C18.8532 22.5566 18.7008 20.7362 18.2232 19.058C17.6822 17.1566 16.5735 15.586 15.6038 14.1328C14.2036 12.0348 11.0875 8.59486 11.0875 8.59486C11.0003 8.49748 10.8945 8.41874 10.7763 8.36316C10.658 8.30758 10.5299 8.27652 10.3994 8.27157V8.26753Z" fill="#1188EE"/>
<path fill-rule="evenodd" clip-rule="evenodd" d="M13.0415 0.103251C10.5376 -0.375556 8.21245 0.909643 6.3658 1.9302C4.64191 2.88295 2.98327 4.20959 1.88364 5.96853C0.652429 7.93793 0.163971 10.2637 0.0170229 12.4504C-0.0696 13.7471 0.189578 15.3824 0.450412 16.7666C0.711246 18.1508 0.990248 19.2558 0.990248 19.2558L2.87587 18.78C2.87587 18.78 2.61149 17.7255 2.36265 16.405C2.1138 15.0843 1.90031 13.4684 1.95967 12.5798C2.09301 10.5956 2.54971 8.57761 3.53356 7.0038C4.39478 5.62642 5.7971 4.47079 7.30861 3.63536C9.117 2.63584 11.0797 1.71257 12.6766 2.01774C14.1164 2.2931 15.562 3.61891 16.5238 5.05124C17.5254 6.54282 17.9927 8.54716 17.9951 10.4484C17.9966 11.7174 17.1485 13.1555 16.7291 14.9663C16.4717 16.0782 16.1133 18.1634 16.1133 18.1634L18.0331 18.4946C18.0331 18.4946 18.4024 16.3704 18.6262 15.404H18.6223C18.9414 14.0262 19.9438 12.4525 19.9414 10.4484C19.9387 8.24043 19.4277 5.88103 18.1395 3.96269C17.0022 2.26903 15.2972 0.534509 13.0415 0.103251Z" fill="#1188EE"/>
<path fill-rule="evenodd" clip-rule="evenodd" d="M1.5757 26.7311C1.5757 26.7311 0.440732 33.0801 0.530247 36.57C0.578977 38.5008 0.328626 40.9418 1.62893 43.0062H1.62513C2.85574 44.9604 4.95786 46.4773 7.2668 46.8922C9.44776 47.2839 11.687 46.5244 13.4027 45.3622C15.3566 44.0388 16.7577 41.9556 17.4819 39.7823C18.2402 37.5062 17.6866 35.2313 17.6149 33.3233C17.5388 31.2645 17.0941 27.3936 17.0941 27.3936L15.159 27.6143C15.159 27.6143 15.6039 31.5371 15.6723 33.3959C15.753 35.5613 16.164 37.5758 15.6343 39.1657C15.0336 40.9687 13.8293 42.7192 12.3154 43.7448C10.9436 44.6739 9.10085 45.2415 7.61275 44.9742C5.9447 44.6746 4.19956 43.4351 3.27506 41.9671C2.43777 40.6378 2.5292 38.6004 2.47671 36.5207C2.40039 33.5454 3.49555 27.0662 3.49555 27.0662L1.5757 26.7311Z" fill="#1188EE"/>
<path fill-rule="evenodd" clip-rule="evenodd" d="M10.2815 6.10174C10.0234 6.10075 9.77544 6.20231 9.59221 6.38435C9.40898 6.56638 9.30548 6.81388 9.30448 7.07231L9.26266 9.31032C9.26011 9.43828 9.28275 9.56532 9.3293 9.68451C9.37584 9.80371 9.44538 9.91266 9.53395 10.0049C9.62251 10.0972 9.72837 10.1713 9.84547 10.2226C9.96257 10.2739 10.0886 10.3016 10.2164 10.3042C10.3442 10.3068 10.4713 10.284 10.5903 10.2374C10.7094 10.1908 10.8181 10.1212 10.9103 10.0325C11.0025 9.94387 11.0763 9.83791 11.1276 9.72067C11.1789 9.60344 11.2066 9.47729 11.2091 9.34934L11.2509 7.10751C11.255 6.97733 11.233 6.84746 11.1861 6.72595C11.1393 6.60444 11.0686 6.49374 10.9782 6.40005C10.8878 6.30636 10.7796 6.23158 10.6599 6.18048C10.5403 6.12938 10.4116 6.1022 10.2815 6.10174Z" fill="#1188EE"/>
<path fill-rule="evenodd" clip-rule="evenodd" d="M34.6159 8.26737C34.4828 8.27027 34.3518 8.30046 34.2308 8.3561C34.1098 8.41175 34.0015 8.49169 33.9126 8.5909C33.9126 8.5909 30.7965 12.0308 29.3963 14.1288C28.4265 15.582 27.3179 17.1526 26.7769 19.054C26.2993 20.7323 26.1469 22.5526 26.45 24.3065C26.6681 25.5638 27.2254 26.7081 27.8946 27.6975C28.3388 28.3544 29.005 28.9963 29.5863 29.5361C30.1676 30.0757 30.6584 30.4877 30.6584 30.4877C30.757 30.5694 30.8707 30.631 30.9931 30.6687C31.1154 30.7064 31.244 30.7195 31.3714 30.7075C31.4989 30.6955 31.6227 30.6585 31.7358 30.5985C31.849 30.5386 31.9493 30.457 32.0309 30.3583C32.1125 30.2595 32.1739 30.1456 32.2116 30.0231C32.2493 29.9006 32.2625 29.772 32.2505 29.6444C32.2385 29.5168 32.2015 29.3927 32.1416 29.2795C32.0817 29.1662 32.0002 29.066 31.9016 28.9842C31.9016 28.9842 31.4478 28.6087 30.9093 28.1088C30.3708 27.6088 29.7444 26.9571 29.5065 26.6054C28.9514 25.7844 28.5254 24.8681 28.3698 23.9713C28.1244 22.5509 28.2432 21.0029 28.6473 19.5831C29.0694 18.0995 30.0328 16.679 31.0158 15.206C32.0254 13.6932 33.9756 11.518 34.692 10.7071C35.4854 11.4973 37.9217 13.9047 39.311 15.5523C40.4274 16.8763 41.5675 18.0631 42.185 19.3851C42.7189 20.5281 43.081 21.7657 43.0404 22.898C43.005 23.8776 42.5558 24.9501 42.0216 26.0307C41.4222 27.2428 39.3034 29.8939 39.3034 29.8939C39.2223 29.9929 39.1614 30.1068 39.1243 30.2293C39.0871 30.3518 39.0745 30.4804 39.087 30.6078C39.0996 30.7352 39.137 30.8591 39.1973 30.972C39.2576 31.0849 39.3395 31.1848 39.4384 31.266C39.5372 31.3472 39.6511 31.408 39.7735 31.4452C39.8958 31.4823 40.0243 31.4951 40.1516 31.4825C40.2788 31.4699 40.4024 31.4325 40.5152 31.3721C40.6279 31.3118 40.7277 31.2297 40.8088 31.1307C40.8088 31.1307 42.9049 28.6374 43.7665 26.8944C44.3266 25.7616 44.9293 24.4552 44.9831 22.9667C45.0398 21.3851 44.5643 19.8764 43.949 18.5592C43.1429 16.8334 41.8489 15.5431 40.7974 14.2963C39.0332 12.2037 35.3192 8.54522 35.3192 8.54522C35.2268 8.45361 35.1169 8.3814 34.9961 8.33303C34.8753 8.28466 34.746 8.26106 34.6159 8.26357V8.26737Z" fill="#1188EE"/>
<path fill-rule="evenodd" clip-rule="evenodd" d="M31.9586 0.103251C29.7029 0.534509 27.9978 2.26903 26.8605 3.96269C25.5723 5.88103 25.0613 8.24043 25.0586 10.4484C25.0562 12.4525 26.0586 14.0262 26.3777 15.404H26.3738C26.5976 16.3704 26.9669 18.4946 26.9669 18.4946L28.8867 18.1634C28.8867 18.1634 28.5283 16.0782 28.2709 14.9663C27.8515 13.1555 27.0034 11.7174 27.0049 10.4484C27.0073 8.54716 27.4746 6.54282 28.4762 5.05124C29.438 3.61891 30.8836 2.2931 32.3234 2.01774C33.9203 1.71257 35.883 2.63584 37.6914 3.63536C39.2029 4.47079 40.6052 5.62642 41.4664 7.0038C42.4503 8.57761 42.907 10.5956 43.0403 12.5798C43.0997 13.4684 42.8862 15.0843 42.6374 16.405C42.3885 17.7255 42.1241 18.78 42.1241 18.78L44.0098 19.2558C44.0098 19.2558 44.2888 18.1508 44.5496 16.7666C44.8104 15.3824 45.0696 13.7471 44.983 12.4504C44.836 10.2637 44.3476 7.93793 43.1164 5.96853C42.0167 4.20959 40.3581 2.88295 38.6342 1.9302C36.7876 0.909643 34.4625 -0.375556 31.9586 0.103251Z" fill="#1188EE"/>
<path fill-rule="evenodd" clip-rule="evenodd" d="M43.4244 26.7311L41.5045 27.066C41.5045 27.066 42.5997 33.5451 42.5234 36.5205C42.4709 38.6002 42.5623 40.6378 41.725 41.9671C40.8005 43.4351 39.0554 44.6744 37.3873 44.9739C35.8993 45.2413 34.0565 44.6737 32.6847 43.7445C31.1708 42.7189 29.9665 40.9687 29.3658 39.1657C28.8361 37.5758 29.2471 35.5611 29.3278 33.3956C29.3962 31.5369 29.8411 27.6141 29.8411 27.6141L27.906 27.3933C27.906 27.3933 27.4609 31.269 27.3852 33.3271C27.3135 35.2351 26.7599 37.51 27.5182 39.7862C28.2424 41.9594 29.6435 44.0423 31.5974 45.3657C33.3131 46.528 35.5523 47.2877 37.7333 46.896C40.0422 46.4811 42.1444 44.9639 43.375 43.0097H43.3711C44.6714 40.9454 44.421 38.5043 44.4698 36.5735C44.5593 33.0837 43.4243 26.7349 43.4243 26.7349L43.4244 26.7311Z" fill="#1188EE"/>
<path fill-rule="evenodd" clip-rule="evenodd" d="M34.6882 6.10161C34.4307 6.11058 34.1872 6.22129 34.0112 6.40967C33.8352 6.59806 33.7409 6.8486 33.7492 7.10644L33.791 9.34826C33.7961 9.60668 33.9036 9.85262 34.0898 10.0317C34.2759 10.2108 34.5255 10.3083 34.7837 10.3031C35.0418 10.298 35.2873 10.1905 35.4661 10.0041C35.645 9.81772 35.7426 9.56767 35.7374 9.30925L35.6956 7.07147C35.6952 6.94089 35.6685 6.81163 35.6173 6.69157C35.566 6.5715 35.4912 6.46311 35.3972 6.37256C35.3032 6.28202 35.1921 6.21133 35.0702 6.16465C34.9484 6.11797 34.8185 6.09704 34.6882 6.10161Z" fill="#1188EE"/>
<path fill-rule="evenodd" clip-rule="evenodd" d="M5.0124 31.5763C4.90302 31.5814 4.79855 31.6233 4.71588 31.6952L1.27537 34.6219C1.17706 34.7057 1.11603 34.8252 1.10569 34.954C1.09534 35.0828 1.13655 35.2105 1.22023 35.3089C1.30391 35.4074 1.42322 35.4687 1.55191 35.479C1.6806 35.4894 1.80813 35.4481 1.90645 35.3644L5.34695 32.4372C5.42495 32.3717 5.4805 32.2835 5.50578 32.1848C5.53105 32.0861 5.52478 31.9819 5.48786 31.887C5.45093 31.792 5.3852 31.7111 5.29991 31.6555C5.21462 31.5999 5.11407 31.5717 5.0124 31.5763Z" fill="#1188EE"/>
<path fill-rule="evenodd" clip-rule="evenodd" d="M5.70431 33.1254C5.5778 33.1293 5.4578 33.1823 5.36976 33.2734L1.07008 37.6656C1.02407 37.7111 0.987557 37.7653 0.962683 37.825C0.937808 37.8848 0.925068 37.949 0.925207 38.0137C0.925346 38.0784 0.938361 38.1425 0.963491 38.2021C0.988621 38.2617 1.02536 38.3157 1.07157 38.361C1.11778 38.4062 1.17254 38.4418 1.23263 38.4657C1.29273 38.4895 1.35696 38.501 1.42159 38.4997C1.48622 38.4984 1.54994 38.4843 1.60903 38.458C1.66813 38.4318 1.72142 38.394 1.76579 38.347L6.06547 33.9547C6.13395 33.8854 6.18012 33.7971 6.19799 33.7013C6.21587 33.6055 6.20464 33.5066 6.16575 33.4173C6.12686 33.3279 6.06211 33.2524 5.97985 33.2003C5.89759 33.1482 5.80161 33.1223 5.70431 33.1254Z" fill="#1188EE"/>
<path fill-rule="evenodd" clip-rule="evenodd" d="M6.3696 35.1921C6.24486 35.203 6.12913 35.2616 6.04646 35.3558L1.5719 40.3533C1.48572 40.4497 1.44131 40.5764 1.44845 40.7056C1.45559 40.8347 1.51368 40.9559 1.60996 41.0422C1.70624 41.1285 1.83281 41.1727 1.96185 41.1656C2.09088 41.1585 2.2118 41.1005 2.29802 41.0041L6.76877 36.0066C6.83478 35.9344 6.8775 35.8438 6.89137 35.7469C6.90524 35.6499 6.88961 35.551 6.84652 35.4631C6.80342 35.3751 6.73487 35.3023 6.6498 35.254C6.56473 35.2056 6.46708 35.1841 6.3696 35.1921Z" fill="#1188EE"/>
<path fill-rule="evenodd" clip-rule="evenodd" d="M7.0539 37.2588C6.92801 37.2717 6.8121 37.3333 6.73076 37.4303L2.51471 42.2527C2.47041 42.3006 2.43616 42.3567 2.41399 42.418C2.39183 42.4794 2.3822 42.5446 2.38569 42.6098C2.38917 42.6749 2.4057 42.7388 2.43428 42.7975C2.46286 42.8561 2.50292 42.9085 2.55208 42.9514C2.60124 42.9942 2.6585 43.0267 2.72046 43.047C2.78241 43.0673 2.8478 43.0749 2.91275 43.0694C2.9777 43.0638 3.04088 43.0453 3.09855 43.0149C3.15621 42.9845 3.20718 42.9427 3.24844 42.8921L7.46067 38.0695C7.52603 37.9966 7.56793 37.9059 7.5809 37.8088C7.59388 37.7117 7.57733 37.613 7.53341 37.5255C7.4895 37.4379 7.42025 37.3656 7.33472 37.318C7.24918 37.2705 7.15132 37.2498 7.0539 37.2588Z" fill="#1188EE"/>
<path fill-rule="evenodd" clip-rule="evenodd" d="M7.84084 38.6366C7.76986 38.6412 7.70074 38.6612 7.63834 38.6954C7.57595 38.7296 7.52179 38.7772 7.47968 38.8345L3.86811 43.6569C3.82966 43.7082 3.80167 43.7664 3.78574 43.8285C3.7698 43.8905 3.76623 43.9551 3.77523 44.0185C3.78423 44.082 3.80563 44.143 3.83819 44.1981C3.87076 44.2533 3.91386 44.3017 3.96503 44.3401C4.0162 44.3786 4.07445 44.4065 4.13643 44.4225C4.19842 44.4384 4.26294 44.4422 4.32631 44.4332C4.38968 44.4241 4.45066 44.4027 4.50576 44.3701C4.56086 44.3375 4.609 44.2943 4.64745 44.2431L8.25902 39.4207C8.31636 39.3464 8.35103 39.2571 8.35886 39.1635C8.36669 39.07 8.34736 38.9761 8.30318 38.8933C8.259 38.8105 8.19186 38.7421 8.10984 38.6966C8.02782 38.6511 7.93441 38.6303 7.84084 38.6366Z" fill="#1188EE"/>
<path fill-rule="evenodd" clip-rule="evenodd" d="M8.78365 40.6159C8.71301 40.6214 8.64443 40.6424 8.58271 40.6773C8.52099 40.7121 8.4676 40.76 8.4263 40.8176L5.49902 44.7798C5.46039 44.8313 5.43233 44.8899 5.41645 44.9523C5.40056 45.0146 5.39717 45.0794 5.40648 45.1431C5.41578 45.2067 5.43758 45.268 5.47064 45.3232C5.50369 45.3783 5.54733 45.4265 5.59905 45.4647C5.65077 45.5029 5.70953 45.5305 5.77195 45.5458C5.83437 45.5612 5.89921 45.564 5.96272 45.5541C6.02624 45.5443 6.08717 45.5218 6.14199 45.4882C6.19682 45.4547 6.24446 45.4105 6.28216 45.3584L9.20564 41.3962C9.26209 41.3216 9.29589 41.2323 9.30299 41.139C9.31009 41.0457 9.2902 40.9523 9.24569 40.87C9.20118 40.7877 9.13394 40.7199 9.052 40.6749C8.97007 40.6298 8.8769 40.6093 8.78365 40.6159Z" fill="#1188EE"/>
<path fill-rule="evenodd" clip-rule="evenodd" d="M9.64663 42.5112C9.55919 42.5169 9.4749 42.5459 9.40263 42.5955C9.33037 42.6451 9.27281 42.7133 9.23605 42.7929L8.11836 45.1185C8.06243 45.2351 8.05504 45.3689 8.09783 45.491C8.14061 45.613 8.23006 45.7131 8.3465 45.7691C8.46294 45.8251 8.59683 45.8326 8.71874 45.7898C8.84064 45.747 8.94057 45.6575 8.99655 45.5409L10.1142 43.2154C10.1526 43.1386 10.1701 43.0532 10.1648 42.9675C10.1596 42.8818 10.1318 42.799 10.0844 42.7275C10.0369 42.656 9.97142 42.5985 9.89456 42.5605C9.81769 42.5225 9.73217 42.5055 9.64663 42.5112Z" fill="#1188EE"/>
<path fill-rule="evenodd" clip-rule="evenodd" d="M6.35439 5.00547C6.22788 5.0094 6.10788 5.06238 6.01985 5.15343L1.09289 10.0253C1.04618 10.07 1.00882 10.1235 0.983001 10.1828C0.957179 10.2421 0.943409 10.306 0.942495 10.3707C0.941581 10.4354 0.953542 10.4996 0.977678 10.5596C1.00181 10.6196 1.03764 10.6742 1.08308 10.7202C1.12851 10.7662 1.18263 10.8026 1.2423 10.8274C1.30196 10.8523 1.36596 10.865 1.43057 10.8648C1.49518 10.8646 1.55911 10.8517 1.61862 10.8265C1.67813 10.8013 1.73204 10.7643 1.77719 10.718L6.70034 5.84615C6.7719 5.77847 6.82127 5.69082 6.84194 5.59447C6.86262 5.49812 6.85363 5.39776 6.81616 5.30663C6.77868 5.2155 6.71449 5.13781 6.63205 5.08397C6.54961 5.03012 6.4528 5.00309 6.35439 5.00547Z" fill="#1188EE"/>
<path fill-rule="evenodd" clip-rule="evenodd" d="M6.32018 7.44152C6.24962 7.43923 6.17941 7.45222 6.11442 7.47982C6.04943 7.50741 5.99122 7.54877 5.94381 7.60114L0.83438 13.082C0.790688 13.1287 0.756618 13.1836 0.734116 13.2435C0.711614 13.3034 0.701121 13.3672 0.703236 13.4312C0.70535 13.4952 0.720031 13.5582 0.74644 13.6165C0.772849 13.6748 0.810469 13.7274 0.857151 13.7711C0.903833 13.8149 0.958664 13.8488 1.01851 13.8713C1.07836 13.8938 1.14205 13.9043 1.20595 13.9022C1.26985 13.9001 1.33271 13.8854 1.39093 13.8589C1.44916 13.8325 1.50161 13.7948 1.54529 13.7481L6.65472 8.26721C6.7203 8.19938 6.76479 8.11415 6.78278 8.02148C6.80076 7.92881 6.79147 7.83278 6.75603 7.74529C6.7206 7.65781 6.66054 7.58253 6.58316 7.52858C6.50579 7.47463 6.41442 7.44445 6.32018 7.44152Z" fill="#1188EE"/>
<path fill-rule="evenodd" clip-rule="evenodd" d="M6.30497 10.1819C6.17824 10.1828 6.05686 10.2332 5.96662 10.3223L1.52628 14.524C1.47453 14.5663 1.43203 14.619 1.40143 14.6784C1.37082 14.7379 1.35276 14.8029 1.34838 14.8697C1.34399 14.9364 1.35337 15.0032 1.37594 15.0662C1.3985 15.1291 1.43377 15.1868 1.47954 15.2355C1.5253 15.2842 1.5806 15.3229 1.64197 15.3492C1.70335 15.3756 1.76949 15.3891 1.83629 15.3887C1.90308 15.3884 1.96909 15.3745 2.03022 15.3476C2.09134 15.3206 2.14627 15.2813 2.19157 15.2322L6.63191 11.03C6.7049 10.9639 6.75618 10.8772 6.77898 10.7814C6.80178 10.6856 6.79503 10.5852 6.75962 10.4933C6.72421 10.4014 6.66181 10.3223 6.58065 10.2666C6.49948 10.2109 6.40336 10.1818 6.30497 10.1819Z" fill="#1188EE"/>
<path fill-rule="evenodd" clip-rule="evenodd" d="M31.6544 31.5763C31.5451 31.5814 31.4406 31.6233 31.3579 31.6952L27.9174 34.6219C27.8191 34.7057 27.7581 34.8252 27.7477 34.954C27.7374 35.0829 27.7786 35.2105 27.8622 35.3089C27.9459 35.4074 28.0652 35.4687 28.1939 35.479C28.3226 35.4894 28.4502 35.4481 28.5485 35.3644L31.989 32.4372C32.067 32.3717 32.1225 32.2835 32.1478 32.1848C32.1731 32.0861 32.1668 31.9819 32.1299 31.887C32.093 31.792 32.0272 31.7111 31.9419 31.6555C31.8567 31.5999 31.7561 31.5717 31.6544 31.5763Z" fill="#1188EE"/>
<path fill-rule="evenodd" clip-rule="evenodd" d="M32.3463 33.1254C32.2198 33.1293 32.0998 33.1823 32.0118 33.2734L27.7121 37.6656C27.6661 37.7111 27.6296 37.7653 27.6047 37.825C27.5799 37.8848 27.5671 37.949 27.5673 38.0137C27.5674 38.0784 27.5804 38.1425 27.6055 38.2021C27.6307 38.2617 27.6674 38.3157 27.7136 38.361C27.7598 38.4062 27.8146 38.4418 27.8747 38.4657C27.9348 38.4895 27.999 38.501 28.0636 38.4997C28.1283 38.4984 28.192 38.4843 28.2511 38.458C28.3102 38.4318 28.3635 38.394 28.4078 38.347L32.7075 33.9547C32.776 33.8854 32.8222 33.7971 32.84 33.7013C32.8579 33.6055 32.8467 33.5066 32.8078 33.4173C32.7689 33.3279 32.7041 33.2524 32.6219 33.2003C32.5396 33.1482 32.4436 33.1223 32.3463 33.1254Z" fill="#1188EE"/>
<path fill-rule="evenodd" clip-rule="evenodd" d="M33.0116 35.1921C32.8869 35.203 32.7712 35.2616 32.6885 35.3558L28.2139 40.3533C28.1713 40.401 28.1384 40.4567 28.1172 40.5172C28.096 40.5776 28.0869 40.6416 28.0904 40.7056C28.0976 40.8348 28.1557 40.9559 28.2519 41.0422C28.3482 41.1285 28.4748 41.173 28.6039 41.1659C28.7329 41.1587 28.8538 41.1005 28.9401 41.0041L33.4108 36.0066C33.4768 35.9344 33.5195 35.8438 33.5334 35.7469C33.5473 35.6499 33.5316 35.551 33.4886 35.4631C33.4455 35.3751 33.3769 35.3023 33.2918 35.254C33.2068 35.2056 33.1091 35.1841 33.0116 35.1921Z" fill="#1188EE"/>
<path fill-rule="evenodd" clip-rule="evenodd" d="M33.6959 37.2588C33.57 37.2717 33.4541 37.3333 33.3728 37.4303L29.1567 42.2527C29.1124 42.3006 29.0782 42.3567 29.056 42.418C29.0339 42.4794 29.0242 42.5446 29.0277 42.6098C29.0312 42.6749 29.0477 42.7388 29.0763 42.7975C29.1049 42.8561 29.145 42.9085 29.1941 42.9514C29.2433 42.9942 29.3005 43.0267 29.3625 43.047C29.4244 43.0673 29.4898 43.0749 29.5548 43.0694C29.6197 43.0638 29.6829 43.0453 29.7406 43.0149C29.7982 42.9845 29.8492 42.9427 29.8905 42.8921L34.1027 38.0695C34.1681 37.9966 34.21 37.9059 34.2229 37.8088C34.2359 37.7117 34.2194 37.613 34.1754 37.5255C34.1315 37.4379 34.0623 37.3656 33.9767 37.318C33.8912 37.2705 33.7934 37.2498 33.6959 37.2588Z" fill="#1188EE"/>
<path fill-rule="evenodd" clip-rule="evenodd" d="M34.4829 38.6366C34.4119 38.6412 34.3428 38.6612 34.2804 38.6954C34.218 38.7296 34.1638 38.7772 34.1217 38.8345L30.5101 43.6569C30.4717 43.7082 30.4437 43.7664 30.4278 43.8285C30.4118 43.8905 30.4083 43.9551 30.4173 44.0185C30.4263 44.082 30.4477 44.143 30.4802 44.1981C30.5128 44.2533 30.5559 44.3017 30.6071 44.3401C30.6582 44.3786 30.7165 44.4065 30.7785 44.4225C30.8405 44.4384 30.905 44.4422 30.9683 44.4332C31.0317 44.4241 31.0927 44.4027 31.1478 44.3701C31.2029 44.3375 31.251 44.2943 31.2895 44.2431L34.9011 39.4207C34.9584 39.3464 34.9931 39.2571 35.0009 39.1635C35.0087 39.07 34.9894 38.9761 34.9452 38.8933C34.901 38.8105 34.8339 38.7421 34.7519 38.6966C34.6699 38.6511 34.5764 38.6303 34.4829 38.6366Z" fill="#1188EE"/>
<path fill-rule="evenodd" clip-rule="evenodd" d="M35.4257 40.6159C35.3551 40.6214 35.2865 40.6424 35.2248 40.6773C35.163 40.7121 35.1096 40.76 35.0683 40.8176L32.1411 44.7798C32.1024 44.8313 32.0744 44.8899 32.0585 44.9523C32.0426 45.0146 32.0392 45.0794 32.0485 45.1431C32.0578 45.2067 32.0796 45.268 32.1127 45.3232C32.1457 45.3783 32.1894 45.4265 32.2411 45.4647C32.2928 45.5029 32.3516 45.5305 32.414 45.5458C32.4764 45.5612 32.5413 45.564 32.6048 45.5541C32.6683 45.5443 32.7292 45.5218 32.784 45.4882C32.8389 45.4547 32.8865 45.4105 32.9242 45.3584L35.8477 41.3962C35.9041 41.3216 35.9379 41.2323 35.945 41.139C35.9521 41.0457 35.9322 40.9523 35.8877 40.87C35.8432 40.7877 35.776 40.7199 35.694 40.6749C35.6121 40.6298 35.5189 40.6093 35.4257 40.6159Z" fill="#1188EE"/>
<path fill-rule="evenodd" clip-rule="evenodd" d="M36.2887 42.5112C36.2012 42.5169 36.1169 42.5459 36.0447 42.5955C35.9724 42.6451 35.9149 42.7133 35.8781 42.7929L34.7604 45.1185C34.7327 45.1762 34.7166 45.2389 34.7131 45.3028C34.7095 45.3668 34.7186 45.4308 34.7398 45.4912C34.7826 45.6133 34.872 45.7133 34.9885 45.7693C35.1049 45.8253 35.2389 45.8326 35.3608 45.7898C35.4827 45.7469 35.5826 45.6575 35.6386 45.5409L36.7563 43.2154C36.7947 43.1386 36.8121 43.0532 36.8069 42.9675C36.8016 42.8818 36.7738 42.799 36.7264 42.7275C36.6789 42.656 36.6135 42.5985 36.5366 42.5605C36.4597 42.5225 36.3742 42.5055 36.2887 42.5112Z" fill="#1188EE"/>
</svg>
