<svg width="197" height="56" viewBox="0 0 197 56" fill="none" xmlns="http://www.w3.org/2000/svg">
<path d="M195.5 6.6682C195.5 6.6682 171 28.6682 138 6.6682C117.173 -7.21619 48 27.6675 59.5 1C28 0.999634 22.8299 6.6682 3.5 6.6682M193 21.8357C193 21.8357 168.5 43.8357 135.5 21.8357C114.673 7.9513 45.5 42.835 57 16.1675C25.5 16.1671 20.3299 21.8357 1 21.8357M193 44.8357C193 44.8357 168.5 66.8357 135.5 44.8357C114.673 30.9513 45.5 65.835 57 39.1675C25.5 39.1671 20.3299 44.8357 1 44.8357" stroke="#1188EE" stroke-width="2" stroke-linecap="round" stroke-linejoin="round"/>
</svg>
